<svg width="11" height="15" viewBox="0 0 11 15" fill="none" xmlns="http://www.w3.org/2000/svg">
<path fill-rule="evenodd" clip-rule="evenodd" d="M5.30859 14.1436C1.80859 10.5766 0.0585938 7.82655 0.0585938 5.89355C0.0585938 2.99406 2.4091 0.643555 5.30859 0.643555C8.20809 0.643555 10.5586 2.99406 10.5586 5.89355C10.5586 7.82655 8.80859 10.5766 5.30859 14.1436ZM5.30859 12.5686C8.05859 9.63734 9.43359 7.41234 9.43359 5.89355C9.43359 3.61538 7.58677 1.76855 5.30859 1.76855C3.03042 1.76855 1.18359 3.61538 1.18359 5.89355C1.18359 7.41234 2.55859 9.63734 5.30859 12.5686ZM5.30859 8.14355C4.06595 8.14355 3.05859 7.1362 3.05859 5.89355C3.05859 4.65091 4.06595 3.64355 5.30859 3.64355C6.55123 3.64355 7.55859 4.65091 7.55859 5.89355C7.55859 7.1362 6.55123 8.14355 5.30859 8.14355ZM5.30859 7.01855C5.92991 7.01855 6.43359 6.51487 6.43359 5.89355C6.43359 5.27223 5.92991 4.76855 5.30859 4.76855C4.68727 4.76855 4.18359 5.27223 4.18359 5.89355C4.18359 6.51487 4.68727 7.01855 5.30859 7.01855Z" fill="white"/>
</svg>
