<svg width="16" height="16" viewBox="0 0 16 16" fill="none" xmlns="http://www.w3.org/2000/svg">
<path d="M15.0586 8.39355C15.0586 4.66563 12.0365 1.64355 8.30859 1.64355V2.76855C11.4152 2.76855 13.9336 5.28695 13.9336 8.39355H15.0586Z" fill="white"/>
<path fill-rule="evenodd" clip-rule="evenodd" d="M1.56834 4.91996C1.51384 5.65116 1.69455 6.33935 1.9441 7.0132C2.46041 8.40678 3.24634 9.63979 4.19864 10.7753C5.48654 12.3065 7.02399 13.5195 8.82533 14.394C9.63708 14.7869 10.4775 15.0908 11.3897 15.1396C12.015 15.174 12.5266 14.9754 13.0017 14.5259C13.2087 14.3301 13.4212 14.1114 13.6341 13.8923C13.7408 13.7825 13.8477 13.6725 13.954 13.5653C14.4244 13.0922 14.4273 12.5158 13.9597 12.0456C13.4033 11.4836 12.8439 10.9244 12.2817 10.3681C11.8228 9.9122 11.2491 9.91506 10.7902 10.3681C10.6509 10.5062 10.5403 10.6125 10.436 10.7126C10.2783 10.864 10.1352 11.0015 9.92973 11.2138C9.83507 11.3113 9.78699 11.3228 9.64002 11.2683C9.49306 11.2138 9.17535 11.0446 8.95735 10.9099C7.94481 10.2761 7.09577 9.45606 6.34426 8.53274C5.97137 8.07395 5.63864 7.58361 5.40917 7.03306C5.36041 6.92123 5.36901 6.84667 5.4608 6.75778C5.57753 6.64492 5.67318 6.55346 5.76161 6.46891C5.93827 6.29998 6.08612 6.15861 6.3155 5.9293C6.79452 5.44757 6.79165 4.88268 6.31263 4.39808C6.13091 4.21451 5.94792 4.03221 5.76535 3.85033L5.76389 3.84889C5.67318 3.75852 5.58257 3.66825 5.49228 3.57799C5.2112 3.29413 4.93006 3.01021 4.64611 2.73209C4.18717 2.2819 3.61062 2.27903 3.15168 2.73209C3.15168 2.73209 2.45303 3.39768 2.10186 3.77011C1.75069 4.14254 1.60276 4.46977 1.56834 4.91996ZM4.07697 3.75264C3.97893 3.65652 3.96823 3.64603 3.9 3.64603C3.83031 3.64603 3.79493 3.67896 3.73053 3.73888C3.72016 3.74853 3.70902 3.7589 3.69688 3.76993C3.60934 3.84943 2.9298 4.53047 2.9298 4.53047C2.9298 4.53047 2.75697 4.70594 2.70322 4.87579C2.64946 5.04565 2.68295 5.45411 2.72944 5.68695C3.10856 7.58597 4.45842 9.45709 5.65585 10.7215C6.87237 12.006 8.60545 13.2709 10.6676 13.9075C10.9293 13.9883 11.6141 14.0553 11.8245 13.9754C12.0349 13.8955 12.2385 13.7041 12.2385 13.7041L12.8316 13.0994C12.8316 13.0994 13.019 12.9304 13.019 12.8268C13.019 12.7232 12.9669 12.6561 12.8964 12.5853C12.226 11.9117 11.8566 11.5391 11.7881 11.4674L11.7759 11.4546C11.6709 11.3445 11.6209 11.2922 11.5314 11.2922C11.4451 11.2922 11.3595 11.3823 11.3049 11.4399L11.2927 11.4527C10.5818 12.1939 10.3382 12.3877 9.90309 12.4222C9.19155 12.4787 7.80982 11.7087 6.34702 10.2252C4.88421 8.74162 4.17917 7.31751 4.25497 6.79104C4.32642 6.29473 4.59854 6.03012 4.67412 5.95662L4.68563 5.94532C4.73891 5.89184 5.31037 5.345 5.31037 5.345C5.31037 5.345 5.43452 5.2335 5.43452 5.16903C5.43452 5.10905 5.40781 5.08241 5.37064 5.04535L5.36213 5.03684C4.64971 4.32023 4.24288 3.91316 4.14164 3.81562C4.11649 3.79139 4.09517 3.77049 4.07697 3.75264Z" fill="white"/>
<path d="M8.30859 3.89355C10.7939 3.89355 12.8086 5.90827 12.8086 8.39355H11.6836C11.6836 6.52959 10.1726 5.01855 8.30859 5.01855V3.89355Z" fill="white"/>
</svg>
