<svg width="79" height="80" viewBox="0 0 79 80" fill="none" xmlns="http://www.w3.org/2000/svg">
<circle opacity="0.34" cx="39.5332" cy="39.7363" r="39.4004" fill="#F4D059"/>
<circle cx="39.5344" cy="39.7375" r="31.7141" fill="#F4D059"/>
<g clip-path="url(#clip0_1_5300)">
<path d="M51.346 28.5964L47.4137 24.6642C47.1667 24.4173 46.8384 24.2812 46.4891 24.2812H29.933C29.2121 24.2812 28.6255 24.8678 28.6255 25.5888V38.534H27.706C26.7395 38.534 25.9531 39.3204 25.9531 40.2869V48.3041C25.9531 49.2707 26.7395 50.0571 27.706 50.0571H41.5134C42.2344 50.0571 42.8209 49.4705 42.8209 48.7496V42.514C42.8209 41.793 42.2344 41.2065 41.5134 41.2065H27.706C27.199 41.2065 26.7866 40.794 26.7866 40.287C26.7866 39.78 27.199 39.3675 27.706 39.3675H28.6255V39.8418C28.6255 40.0719 28.8121 40.2585 29.0422 40.2585C29.2723 40.2585 29.4589 40.0719 29.4589 39.8418V25.5888C29.4589 25.3273 29.6716 25.1147 29.933 25.1147H45.9961V29.152C45.9961 29.6274 46.3828 30.0141 46.8582 30.0141H50.8954V51.422C50.8954 51.6834 50.6828 51.896 50.4214 51.896H29.933C29.6716 51.896 29.4589 51.6834 29.4589 51.422C29.4589 51.1918 29.2723 51.0053 29.0422 51.0053C28.8121 51.0053 28.6255 51.1918 28.6255 51.422C28.6255 52.143 29.2121 52.7295 29.933 52.7295H50.4214C51.1424 52.7295 51.7289 52.1429 51.7289 51.422V29.5209C51.7289 29.1717 51.5929 28.8434 51.346 28.5964ZM27.706 42.0399H41.5134C41.7748 42.0399 41.9875 42.2526 41.9875 42.514V48.7496C41.9875 49.011 41.7748 49.2237 41.5134 49.2237H27.706C27.199 49.2237 26.7866 48.8112 26.7866 48.3042V41.7789C27.054 41.9444 27.369 42.0399 27.706 42.0399ZM46.8295 29.152V25.2588L50.7515 29.1807H46.8582C46.8424 29.1807 46.8295 29.1678 46.8295 29.152Z" fill="#00204A"/>
<path d="M37.7605 47.8159C37.9906 47.8159 38.1772 47.6293 38.1772 47.3992V46.0138H39.0801C39.3103 46.0138 39.4969 45.8272 39.4969 45.5971C39.4969 45.367 39.3103 45.1804 39.0801 45.1804H38.1772V44.2788H39.1941C39.4242 44.2788 39.6108 44.0922 39.6108 43.862C39.6108 43.6318 39.4242 43.4453 39.1941 43.4453H37.7605C37.5303 43.4453 37.3438 43.6318 37.3438 43.862V47.3991C37.3438 47.6293 37.5303 47.8159 37.7605 47.8159Z" fill="#00204A"/>
<path d="M33.3821 47.6547C33.4601 47.7322 33.5657 47.7756 33.6757 47.7756H33.6772C33.7068 47.7755 34.405 47.7728 34.6839 47.7679C35.7136 47.7499 36.4611 46.8508 36.4611 45.63C36.4611 44.3467 35.7325 43.4844 34.648 43.4844H33.6687C33.558 43.4844 33.4519 43.5284 33.3737 43.6067C33.2956 43.6851 33.2517 43.7912 33.252 43.9019V43.9046V43.9047V47.3027C33.252 47.3313 33.2548 47.3593 33.2603 47.3863C33.267 47.4874 33.3098 47.5829 33.3821 47.6547ZM34.648 44.3178C35.3703 44.3178 35.6276 44.9956 35.6276 45.63C35.6276 46.5197 35.1463 46.9263 34.6693 46.9346C34.5367 46.9369 34.3002 46.9388 34.091 46.9401C34.0896 46.5312 34.0868 44.7431 34.0861 44.3178H34.648Z" fill="#00204A"/>
<path d="M29.9206 47.8303C30.1508 47.8303 30.3374 47.6438 30.3374 47.4136V46.2803C30.5443 46.2792 30.7795 46.2781 30.9128 46.2781C31.7079 46.2781 32.3547 45.6402 32.3547 44.8559C32.3547 44.0716 31.7079 43.4336 30.9128 43.4336H29.9206C29.8099 43.4336 29.7037 43.4777 29.6255 43.5561C29.5476 43.6342 29.504 43.7401 29.504 43.8503H29.5039V47.4135C29.5039 47.6438 29.6905 47.8303 29.9206 47.8303ZM30.9128 44.2671C31.2426 44.2671 31.5213 44.5368 31.5213 44.8559C31.5213 45.1751 31.2426 45.4448 30.9128 45.4448C30.7804 45.4448 30.5481 45.4458 30.342 45.4469C30.3409 45.234 30.3392 44.4898 30.3386 44.2671H30.9128V44.2671Z" fill="#00204A"/>
<path d="M37.727 36.365C36.7029 36.6883 35.6517 37.1358 35.0909 37.7146C34.6282 38.1921 34.5444 38.7462 34.8608 39.2348C35.0756 39.5663 35.3708 39.7396 35.7027 39.7396C35.8301 39.7396 35.963 39.714 36.0987 39.6621C36.5884 39.4749 37.1172 38.9422 37.7155 38.0336C37.9086 37.7403 38.1042 37.4143 38.2988 37.0616C38.3696 37.0408 38.4419 37.0201 38.5158 36.9994C39.6918 36.6704 41.0223 36.4315 42.19 36.3318C42.9018 37.0201 43.6376 37.5564 44.2649 37.7027C44.9549 37.8636 45.502 37.5481 45.7279 36.8585C45.8648 36.4409 45.7072 36.0471 45.3063 35.8051C44.8942 35.5562 44.1779 35.436 43.1779 35.4475C42.965 35.4499 42.7402 35.4586 42.5062 35.4731C42.057 35.0098 41.5896 34.4561 41.1395 33.8446C40.7908 33.371 40.4791 32.897 40.2155 32.4464C40.2442 32.3477 40.2714 32.2503 40.2972 32.1546C40.5821 31.0982 40.6837 30.2893 40.5992 29.7505C40.4771 28.9723 39.9749 28.8618 39.7647 28.8505C39.0487 28.8118 38.5665 29.173 38.4748 29.8167C38.4019 30.328 38.5738 31.0316 38.9858 31.9077C39.0838 32.1159 39.1936 32.3306 39.3143 32.5498C39.2693 32.694 39.2206 32.8441 39.1678 33.0003C38.7836 34.1367 38.2633 35.3477 37.727 36.365ZM35.7258 38.9039C35.6961 38.9077 35.646 38.9139 35.5603 38.7816C35.4906 38.674 35.4868 38.5927 35.5463 38.4818C35.6854 38.2225 36.1605 37.8585 37.0796 37.4826C36.4381 38.4776 35.9586 38.8749 35.7258 38.9039ZM44.9428 36.5707C44.9422 36.5758 44.9406 36.5851 44.936 36.5991C44.8319 36.9167 44.692 36.9466 44.4542 36.8911C44.1638 36.8234 43.795 36.6088 43.3836 36.2805C44.4975 36.2894 44.8861 36.4901 44.9428 36.5707ZM39.2998 29.9343C39.3168 29.8152 39.3359 29.6813 39.6529 29.6813C39.6729 29.6813 39.694 29.6818 39.7164 29.6829C39.8113 29.7985 39.8601 30.313 39.6405 31.3311C39.3819 30.738 39.2555 30.2452 39.2998 29.9343ZM39.8801 33.4906C40.063 33.7717 40.2598 34.0556 40.4683 34.3388C40.7675 34.7452 41.1054 35.1671 41.4628 35.5698C41.0493 35.6197 40.6228 35.6841 40.1962 35.7616C39.9074 35.814 39.4041 35.9128 38.8149 36.0598C38.9456 35.7888 39.0745 35.5079 39.2005 35.2191C39.4511 34.6452 39.6816 34.058 39.8801 33.4906Z" fill="#00204A"/>
</g>
<defs>
<clipPath id="clip0_1_5300">
<rect width="28.4482" height="28.4482" fill="white" transform="translate(24.6172 24.2812)"/>
</clipPath>
</defs>
</svg>
